<?xml version="1.0" standalone="no"?>
<!DOCTYPE svg PUBLIC "-//W3C//DTD SVG 20010904//EN"
 "http://www.w3.org/TR/2001/REC-SVG-20010904/DTD/svg10.dtd">
<svg version="1.0" xmlns="http://www.w3.org/2000/svg"
 width="528.000000pt" height="353.000000pt" viewBox="0 0 528.000000 353.000000"
 preserveAspectRatio="xMidYMid meet">

<g transform="translate(0.000000,353.000000) scale(0.100000,-0.100000)"
fill="#000000" stroke="none">
<path d="M1940 2661 c-88 -27 -179 -104 -212 -179 -20 -45 -20 -46 -2 -61 18
-15 19 -29 14 -216 -3 -110 -4 -202 -3 -204 7 -10 45 36 67 80 l24 49 -34 34
c-28 28 -34 41 -34 78 0 133 118 108 135 -29 10 -84 15 -103 32 -103 8 0 23
20 34 44 17 38 18 52 9 93 -22 97 9 146 81 125 19 -6 61 -22 94 -36 79 -34
144 -34 182 -2 25 22 28 30 27 88 -1 119 -64 193 -194 232 -55 17 -176 20
-220 7z"/>
<path d="M1653 212 l-1313 -2 -6 -24 c-3 -14 -3 -30 1 -35 4 -8 717 -11 2360
-11 2286 0 2355 1 2364 19 7 13 7 23 -2 35 -11 14 -104 16 -1052 18 -572 2
-1631 2 -2352 0z"/>
</g>
</svg>
